<svg preserveAspectRatio="none" overflow="visible" style="display: block;" width="390" height="445.476" viewBox="0 0 390 445.476" fill="none" xmlns="http://www.w3.org/2000/svg">
<g id="Group">
<path id="Vector" d="M39.4757 211.747L37.4106 208.874C37.2443 208.642 37.3487 207.872 37.5846 207.679C37.8205 207.485 38.9382 207.269 39.0271 207.563L39.7658 210.049C41.9779 201.874 44.7237 194.104 48.5523 186.06L51.739 180.812L49.0589 181.311C48.4556 181.424 47.9297 179.676 48.3164 179.54L51.6771 176.245C55.2853 179.764 53.1776 174.482 59.5548 169.404C56.0627 169.392 53.1428 170.595 49.7319 172.266C37.8669 160.18 21.7789 167.107 8.71898 154.174C7.58199 153.049 6.53394 151.653 6.12014 150.644C5.6986 149.615 6.67704 146.687 7.83336 146.165L21.0596 149.549C29.9428 151.819 33.9648 148.795 39.7155 149.626C38.7874 150.833 37.2404 151.842 36.5211 151.332L35.272 150.442C33.2146 148.977 36.4979 157.133 43.1536 156.143C45.4623 155.799 46.9783 155.907 48.27 156.611L46.7618 158.096C46.5143 158.34 47.2413 158.719 48.0883 159.159C52.0948 155.304 56.3875 161 60.1079 153.865C63.6774 153.068 67.4751 150.879 68.9215 147.967C68.2524 146.61 67.5641 145.222 67.6762 145.442L69.4165 146.482C69.6369 146.614 70.1668 145.767 70.3369 145.96C70.5922 146.246 69.3894 144.85 69.0994 144.487C67.5486 142.53 68.3491 138.021 70.4839 136.358C72.6186 134.695 75.3683 133.662 78.466 133.751L78.5898 131.663C78.6246 131.11 80.6085 131.462 81.2969 131.566L81.5985 129.71C81.7571 128.743 83.2808 129.443 85.1681 126.821C85.4272 126.461 86.1426 127.571 86.2896 127.834L87.0785 126.206C87.2294 125.893 88.289 125.943 88.6564 125.885C89.8475 124.071 92.0558 122.992 94.2563 121.639C101.991 116.882 109.076 111.209 117.499 107.937L125.698 104.754L138.715 100.856L160.902 98.0867L171.637 98.8331L180.06 99.5873L194.037 102.646C215.28 108.467 234.651 119.005 251.331 133.341L264.836 146.915C275.154 157.288 282.842 169.717 287.761 183.62C284.691 178.496 282.413 173.925 276.937 171.024L272.075 166.001L264.971 159.202L244.699 144.661L239.226 141.66L229.972 136.826L217.771 131.334L202.684 126.291L196.69 125.007L190.827 123.677L180.111 122.06L158.137 122.192C146.318 122.261 128.714 128.159 117.812 134.378L110.387 138.612L104.814 142.217L97.3656 147.244L91.1237 150.976C85.315 154.449 76.9848 162.86 74.3087 169.017L71.6286 171.778L66.5702 176.056C63.4531 178.689 63.8708 184.196 63.1128 187.692C61.3493 195.806 57.6289 201.75 53.603 208.406C50.3584 213.774 48.0225 219.315 46.0192 225.051L43.6176 231.927L39.352 251.708C35.6278 238.35 36.3664 225.128 39.4641 211.751L39.4757 211.747Z" fill="#52190E"/>
<path id="Vector_2" d="M215.648 444.343L200.418 445.476L193.314 444.772L186.078 443.639L177.91 443.345L171.858 442.375C152.808 439.327 134.326 435.054 116.223 428.456C104.021 424.009 93.1464 418.482 82.6892 410.968L75.4303 405.755L68.0321 400L49.3762 381.65L41.9161 371.34C61.1792 390.955 83.4936 406.888 109.749 416.877L136.623 424.836C138.746 423.266 140.838 423.73 142.134 425.795C216.46 441.733 292.039 411.769 337.367 351.744C339.398 349.056 341.335 345.835 342.472 343.062C343.675 340.123 344.777 338.897 346.514 336.661C354.515 326.374 359.427 314.154 364.172 301.972L368.824 285.57L371.922 271.837L374.791 257.664L376.18 249.991L377.1 260.193L377.711 268.225L376.884 277.453L374.907 291.487L372.951 301.987L370.766 311.35C368.174 322.449 364.887 332.705 359.334 342.598L351.274 356.965L345.346 365.635L336.111 378.405L332.243 382.806L327.935 387.613L306.019 406.648L295.102 414.483L284.053 421.17L278.48 424.144L264.894 430.649L255.357 434.354L236.388 440.066L223.672 442.924L215.64 444.339L215.648 444.343Z" fill="#52190E"/>
<g id="Group_2">
<path id="Vector_3" d="M371.868 198.374C369.903 198.347 368.136 199.221 365.754 200.462C365.599 197.929 367.838 194.808 370.201 193.776L369.857 191.974C369.876 192.074 374.076 188.965 375.457 182.634L378.91 181.029L375.708 179.269C374.231 178.457 379.695 175.255 379.44 174.575L378.226 171.345L377.603 173.252C377.503 173.565 376.977 174.563 376.779 174.296C376.52 173.936 375.797 172.359 375.948 171.945C376.358 170.827 379.065 170.363 380.167 170.785C381.706 171.376 382.576 173.662 383.006 175.804L388.656 172.834C389.572 173.697 389.298 176.586 389.398 178.569L389.913 188.891C390.145 193.544 390.16 197.481 386.703 200.868C381.01 206.449 376.625 213.913 376.103 222.429L371.864 198.366L371.868 198.374Z" fill="#52190E"/>
<g id="Group_3">
<path id="Vector_4" d="M104.992 38.7234C104.014 36.2058 102.173 33.3827 99.9916 32.6749C94.7243 34.713 92.5122 39.8604 93.2277 44.5205C84.6809 49.5751 89.0393 53.8601 85.1604 56.2926L86.1621 51.6093C86.4096 50.4569 86.1427 47.9083 86.2278 46.5741L87.8327 21.5023C88.1073 17.2134 90.8454 12.3831 91.905 8.1175C92.8138 4.45128 103.476 0.386732 110.364 0C112.116 0.394466 115.457 1.43477 117.213 2.49442C123.586 6.32693 123.752 15.4963 119.491 20.7791L114.034 21.8465L113.28 20.1371C113.129 19.7929 111.474 20.4581 111.145 20.2763C109.981 19.6305 110 16.6256 111.025 15.7748C112.425 14.6146 114.707 14.3787 117.035 14.282C115.113 10.1556 109.795 9.75337 106.175 12.387C101.442 15.8289 99.6629 22.8868 102.536 27.6668C105.035 31.8164 106.315 34.6086 112.348 36.1826L104.996 38.7273L104.992 38.7234Z" fill="#52190E"/>
<path id="Vector_5" d="M48.3976 56.9153C50.602 55.4882 51.9169 52.5607 51.9594 50.4375C52.0058 48.1326 50.4589 45.4023 48.0999 45.4255C48.823 47.3553 49.5269 49.0878 49.4186 50.1165C49.3142 51.1452 47.1678 52.58 46.1121 52.7425C42.9525 53.2297 40.5857 50.3679 40.6669 47.0188C40.7597 43.2907 44.8126 41.1057 48.9275 40.2394L42.4381 37.8456C42.9795 37.4395 44.7972 36.8865 45.648 36.9638L47.4153 37.1262C47.628 37.1456 47.6435 36.8594 47.5004 36.6892C46.3364 35.3163 45.7099 36.3798 43.1574 34.9219C42.3646 34.4694 43.1729 32.1374 43.8922 31.3369C44.9519 30.1535 45.6016 29.7861 47.6706 28.5099L50.339 36.0782C50.5092 36.5655 50.1689 38.4102 50.602 38.5958L52.9881 39.6284L53.5064 42.1189C53.6765 42.9349 56.3991 43.2443 57.7527 43.2869L56.4223 45.4216C58.3676 50.3679 59.6245 56.0219 57.8339 61.3202L53.866 73.0768C44.2209 73.1774 37.1747 64.3019 32.8626 55.3877C37.8437 58.6362 43.3431 60.1948 48.3938 56.9191L48.3976 56.9153Z" fill="#52190E"/>
<path id="Vector_6" d="M299.352 153.068L298.431 148.613L303.528 147.306L307.813 154.302L314.048 151.854C316.306 150.965 319.048 150.582 321.651 150.508L315.304 157.485L307.249 160.641C303.757 164.856 299.646 168.526 293.733 167.915L294.974 165.285C295.31 164.574 294.359 162.953 293.837 161.89C292.12 158.401 291.01 160.853 287.58 159.395C286.957 159.128 288.655 157.504 289.173 156.955C289.641 156.464 290.631 157.605 291.462 158.517C293.388 157.74 294.769 158.177 296.966 159.415C297.909 158.765 298.501 156.402 298.072 155.215C297.685 154.143 295.794 151.955 294.576 152.055C292.476 152.221 289.823 153.683 288.009 154.874C287.866 153.85 287.301 151.421 286.555 150.45C285.808 149.48 283.206 148.919 282.208 148.238L280.406 147.012C279.992 146.73 280.313 145.647 280.723 145.001L282.761 146.571C283.213 146.919 284.726 146.355 284.768 145.79L284.961 143.296L286.006 138.74L290.12 135.155L286.775 133.693L290.526 132.773C292.619 130.383 294.928 127.045 298.408 127.44C297.008 128.283 293.918 130.066 293.984 131.787C294.096 134.78 297.712 137.394 299.793 137.827C300.319 137.936 302.229 137.518 302.384 137.042L302.972 135.232L307.601 133.272L309.612 132.421C310.022 132.247 310.544 133.48 310.536 133.863L306.8 137.785L303.204 141.718L308.103 141.78L304.959 147.906C304.016 144.297 304.259 143.706 302.662 141.985C301.769 141.022 298.489 141.513 298.01 142.747C297.863 143.122 298.721 144.723 298.327 144.758L295.72 144.978L295.856 143.087C295.887 142.669 293.04 139.057 290.422 138.895L292.773 146.014L295.013 145.616C295.492 145.531 296.42 146.757 295.979 146.95L293.439 148.064C292.951 148.277 293.783 149.855 294.251 150.183L298.806 153.401L299.356 153.065L299.352 153.068ZM287.065 142.132L287.553 143.737C287.669 144.116 289.215 144.139 289.084 143.748L288.558 142.213C288.473 141.965 286.988 141.872 287.069 142.132H287.065ZM299.185 153.954L300.848 157.957L296.556 162.172C299.414 164.26 304.507 160.563 304.534 159.059C304.557 157.667 303.784 155.532 303.192 154.468L300.322 149.313C300.025 150.137 300.094 151.881 300.554 152.612L301.428 153.993C301.556 154.194 300.659 154.348 300.485 154.186L299.684 153.444L299.185 153.954Z" fill="#52190E"/>
<path id="Vector_7" d="M54.0324 104.955C53.3208 103.752 55.1887 102.426 56.5113 101.683L66.4039 91.5626L73.0286 83.36C74.6645 81.3335 75.0899 77.9922 75.7667 75.8574L83.2886 60.0671C83.2538 61.0494 83.6212 64.2361 83.1726 65.5046L79.8931 74.7397C78.2224 79.4463 74.8424 83.0583 72.2861 87.2157C71.1298 89.0991 70.132 90.6653 68.5696 92.0576C64.389 96.8647 60.4405 101.37 54.0324 104.955Z" fill="#52190E"/>
<path id="Vector_8" d="M279.961 131.353L282.896 128C284.49 127.393 285.433 126.937 286.93 125.854L278.704 124.586C280.007 121.898 283.194 120.297 286.651 121.828C286.876 121.209 287.595 119.338 288.017 119.616L290.105 120.997L294.003 118.092L291.346 122.822L291.323 124.686C291.312 125.491 285.271 127.459 281.462 134.006L276.171 135.805C276.326 133.906 277.358 132.301 279.957 131.346L279.961 131.353Z" fill="#52190E"/>
<path id="Vector_9" d="M316.569 176.609C311.511 177.34 308.579 177.591 306.12 172.146L309.635 169.76C310.381 172.026 311.619 174.168 312.895 173.909C315.699 173.341 317.23 173.267 320.142 173.26C320.034 172.981 319.083 170.773 319.593 170.425L321.043 169.435C323.24 172.606 325.591 170.39 327.653 169.686L329.78 168.959C331.211 168.468 331.056 174.513 316.573 176.609H316.569Z" fill="#52190E"/>
<path id="Vector_10" d="M42.6973 24.2558C41.6569 23.0492 41.9741 20.4697 43.0801 19.1432C44.2983 17.6852 46.7231 17.3952 48.9159 18.1918C51.7816 19.236 52.0175 23.1343 50.0568 25.2536C48.2971 27.1602 45.4044 27.3999 42.6934 24.2558H42.6973Z" fill="#52190E"/>
<path id="Vector_11" d="M305.659 224.911C294.401 230.535 287.146 224.931 292.777 224.745C300.593 224.486 309.333 222.734 316.492 218.557C319.044 217.069 321.476 215.39 324.377 216.666C318.1 220.58 311.781 221.852 305.659 224.911Z" fill="#52190E"/>
<path id="Vector_12" d="M178.146 47.8348L190.332 47.974C190.676 47.5564 191.786 45.963 192.173 46.2608L193.886 47.5951L197.808 39.9416C199.888 42.3471 198.326 43.6233 197.498 45.5802C195.657 49.9348 191.175 53.3148 186.739 51.4469L178.15 47.831L178.146 47.8348Z" fill="#52190E"/>
<path id="Vector_13" d="M162.646 36.6583C162.209 35.8229 163.562 34.6782 164.572 34.6627L173.219 34.5274L184.817 34.3224C187.776 34.2721 189.895 33.8854 192.784 35.6605C190.413 37.0721 187.783 37.161 184.806 37.0295L172.156 36.4688L162.642 36.6583H162.646Z" fill="#52190E"/>
<path id="Vector_14" d="M350.555 194.998L360.146 182.622C361.53 180.84 362.014 178.89 361.271 176.879C362.23 176.86 363.209 176.922 363.572 176.427L365.703 173.526C364.965 177.03 364.373 181.47 361.786 184.529L357.28 189.862C355.432 192.051 353.405 193.737 350.555 194.994V194.998Z" fill="#52190E"/>
<path id="Vector_15" d="M242.034 66.2471C236.55 65.7366 231.032 64.8471 229.956 60.8213C229.705 59.8776 230.993 57.6269 231.608 57.4296C235.324 62.0781 240.932 59.9318 242.03 66.251L242.034 66.2471Z" fill="#52190E"/>
<path id="Vector_16" d="M175.447 45.7697C173.471 49.5596 168.853 51.5591 164.688 50.7779C164 50.6502 163.11 48.6431 163.578 48.121L166.873 44.4625L171.204 47.2547C172.125 46.3807 173.037 45.6923 175.447 45.7658V45.7697Z" fill="#52190E"/>
<path id="Vector_17" d="M217.585 56.5015C216.03 58.3346 211.517 55.1982 209.553 54.6838C208.795 54.4866 205.968 54.3435 206.281 53.6899L207.723 50.7005C208.412 49.2735 211.513 54.5408 215.334 54.649C219.155 54.7573 220.3 49.0376 220.721 49.2309L222.914 50.221L217.577 56.5054L217.585 56.5015Z" fill="#52190E"/>
<path id="Vector_18" d="M140.022 70.4277C139.728 70.5785 140.923 69.4609 141.306 69.5846L143.526 70.2885L145.533 70.9304C145.993 71.0774 145.839 69.2868 145.85 69.1321L151.141 70.1028C154.652 70.7487 158.017 70.7796 161.822 70.4354L171.258 69.5846L172.546 62.5306L176.027 63.7643L175.18 65.9145C174.986 66.4018 175.81 67.1289 176.53 67.9719L170.411 71.5067C168.683 72.5083 164.409 71.0155 162.41 71.1857L151.756 72.1022C147.799 72.4426 144.102 74.5735 140.022 70.4354V70.4277Z" fill="#52190E"/>
<path id="Vector_19" d="M145.696 29.059L137.795 30.8921C137.102 31.0546 135.37 30.722 135.447 30.5325C139.322 28.0651 141.983 25.3155 144.265 21.9973L145.696 29.0551V29.059Z" fill="#52190E"/>
<path id="Vector_20" d="M287.193 100.539C285.909 103.911 283.797 106.386 280.653 107.043C279.547 105.551 280.119 103.076 281.245 101.861C282.714 100.272 284.567 99.7381 287.193 100.539Z" fill="#52190E"/>
<path id="Vector_21" d="M135.861 40.3903C135.285 40.5024 133.196 39.7135 133.258 39.2417L133.486 37.4782L137.899 36.3064L147.83 38.0312L135.861 40.3903Z" fill="#52190E"/>
<path id="Vector_22" d="M115.384 98.4464L110.518 98.8177C110.147 98.8447 108.782 98.574 109.049 98.3149L110.511 96.9072L121.389 93.9449C120.454 95.6155 119.104 94.8691 120.272 95.368L122.209 96.1918C120.477 97.031 117.364 98.2995 115.387 98.4503L115.384 98.4464Z" fill="#52190E"/>
<path id="Vector_23" d="M295.45 210.328C292.491 212.559 287.406 214.323 284.49 210.881L287.201 211.244C287.734 211.314 288.744 209.771 288.253 209.585L286.505 208.928C286.265 208.839 286.28 208.483 286.481 208.294C286.76 208.034 288.28 207.551 288.647 207.694L295.453 210.328H295.45Z" fill="#52190E"/>
<path id="Vector_24" d="M254.8 96.9072L249.66 95.4686C257.124 93.6973 256.235 85.7577 259.928 88.7549L254.8 96.9111V96.9072Z" fill="#52190E"/>
<path id="Vector_25" d="M265.493 107.817C265.238 107.45 265.517 105.806 265.965 105.767C268.982 105.524 270.722 107.705 271.499 106.927L273.738 104.692L275.773 104.557C276.287 104.522 277.006 103.768 277.749 103.215C277.726 105.11 276.631 106.022 274.922 106.746L269.457 109.054C268.471 109.472 266.066 108.645 265.493 107.813V107.817Z" fill="#52190E"/>
<path id="Vector_26" d="M343.721 220.097L339.487 222.201C342.747 218.295 346.877 215.359 351.317 212.358L356 209.195C353.896 212.977 348.18 217.486 343.721 220.097Z" fill="#52190E"/>
<path id="Vector_27" d="M186.206 72.1796C187.474 72.2105 190.03 72.137 191.314 71.5299C192.598 70.9227 193.082 68.4283 193.952 65.8488L196.373 70.0023C193.998 74.0978 189.245 74.5541 185.393 72.8525L185.072 72.6205L181.105 70.1028L184.048 68.467L185.552 71.9862L186.206 72.1834V72.1796Z" fill="#52190E"/>
<path id="Vector_28" d="M314.086 119.972L316.143 119.953C316.855 119.945 317.864 121.712 317.443 122.288C315.254 125.286 310.563 124.133 310.261 123.731L307.57 120.096C307.353 119.929 307.136 119.601 307.415 119.601C307.995 119.601 309.387 119.767 309.538 120.107C309.94 121.004 310.575 122.424 311.267 122.76C312.156 123.189 313.607 122.257 314.086 119.976V119.972Z" fill="#52190E"/>
<path id="Vector_29" d="M309.368 178.817C309.012 181.327 306.073 184.216 302.507 183.33L303.254 178.372L309.372 178.813L309.368 178.817Z" fill="#52190E"/>
<path id="Vector_30" d="M213.923 76.6347C212.14 78.7424 208.528 78.7424 205.917 77.0679C204.939 77.6905 203.732 78.5568 203.318 78.0463C202.742 77.3386 201.802 75.4281 201.791 74.9486C204.436 76.4646 206.992 76.5149 209.34 74.9563L210.5 76.4336C210.825 76.8474 211.769 76.6579 213.923 76.6309V76.6347Z" fill="#52190E"/>
<path id="Vector_31" d="M23.8518 123.178L25.0971 124.628C25.4297 125.015 23.5231 126.125 23.1596 125.769C22.5331 125.154 21.6784 123.143 21.7905 122.273C21.922 121.256 23.3761 119.852 24.3159 119.121C24.2966 119.102 23.5192 118.274 23.7474 118.011L24.9115 116.665C25.217 116.313 25.8242 117.346 26.9805 118.232L25.3485 122.687L23.9408 121.507C23.7706 121.364 23.2485 121.271 23.2872 121.492C23.3336 121.747 23.6933 123 23.8441 123.178H23.8518Z" fill="#52190E"/>
<path id="Vector_32" d="M286.373 205.602C284.006 205.088 282.958 204.248 282.038 202.721C280.955 200.915 281.117 199.155 283.538 197.376L286.373 205.602Z" fill="#52190E"/>
<path id="Vector_33" d="M133.15 40.4521L115.318 45.4255L115.585 44.215L131.773 39.7599L133.15 40.4521Z" fill="#52190E"/>
<path id="Vector_34" d="M309.612 130.042L302.538 128.851C303.567 127.123 304.967 127.343 306.932 127.37L309.608 127.409C310.242 127.416 309.859 129.35 309.608 130.042H309.612Z" fill="#52190E"/>
<path id="Vector_35" d="M267.481 73.6221C266.835 74.5 264.453 76.3176 263.529 75.8497C262.604 75.3817 261.305 74.0784 260.721 73.3359L267.241 71.3636L267.481 73.6221Z" fill="#52190E"/>
<path id="Vector_36" d="M53.9744 122.691C52.354 122.358 49.6662 121.457 48.4867 120.761C48.2353 120.61 48.9933 118.417 49.1596 118.661L50.5363 120.672C50.4938 120.807 52.1529 120.61 52.3656 120.127L53.723 117.048L55.881 119.098L54.0904 120.405C53.7037 120.687 53.9241 121.445 53.9744 122.691Z" fill="#52190E"/>
<path id="Vector_37" d="M379.061 163.661L376.091 168.101C374.13 166.445 373.755 165.869 373.504 162.783L379.061 163.661Z" fill="#52190E"/>
<path id="Vector_38" d="M100.591 51.7331C99.918 52.0966 98.5645 52.2938 97.3965 52.1971C100.138 49.1033 103.584 47.3901 107.633 47.9586L100.591 51.7369V51.7331Z" fill="#52190E"/>
<path id="Vector_39" d="M257.65 124.439L260.013 119.84C260.373 119.144 260.613 117.033 261.282 116.828L264.596 115.822C261.22 118.982 262.024 122.787 257.65 124.435V124.439Z" fill="#52190E"/>
<path id="Vector_40" d="M322.324 125.247L313.05 132.73C314.941 128.677 319.295 124.74 322.324 125.247Z" fill="#52190E"/>
<path id="Vector_41" d="M256.274 120.2C256.595 120.61 254.773 124.879 254.166 124.307L252.406 122.64L254.085 117.404L256.274 120.2Z" fill="#52190E"/>
<path id="Vector_42" d="M215.764 75.5209L212.658 71.5802C212.658 71.5802 214.232 70.6597 215.071 70.1686L216.804 69.1553C217.14 68.9581 217.601 70.4702 217.763 70.8608C217.968 71.3481 217.202 71.6072 216.278 72.0558L215.764 75.5209Z" fill="#52190E"/>
<path id="Vector_43" d="M201.041 52.5259C200.623 53.2104 198.743 54.8579 198.156 54.4943L195.522 52.8623C196.771 52.2552 197.258 52.143 197.297 51.7988L197.533 49.7491C198.523 50.2944 200.027 51.4662 201.037 52.5297L201.041 52.5259Z" fill="#52190E"/>
<path id="Vector_44" d="M376.392 153.621L373.848 158.1C373.101 157.817 372.305 157.64 372.251 157.326L371.763 154.58L376.392 153.625V153.621Z" fill="#52190E"/>
<path id="Vector_45" d="M346.077 154.623C345.759 154.998 344.004 155.694 343.636 155.369L341.254 153.273L345.04 152.341C345.442 152.241 347.039 152.179 346.943 152.558C346.807 153.111 346.413 154.225 346.077 154.623Z" fill="#52190E"/>
<path id="Vector_46" d="M153.654 88.3102L146.972 89.4936L145.15 90.2129C144.678 90.3985 143.835 89.1339 144.125 88.7162C144.431 88.2753 145.231 87.119 145.135 87.2621L146.724 88.5654C148.016 89.6212 146.883 85.3362 147.215 85.3826L149.679 85.7345C150.185 85.808 148.306 87.6837 148.615 87.3317C150.557 87.5444 151.636 87.7107 153.658 88.3218L153.654 88.3102Z" fill="#52190E"/>
<path id="Vector_47" d="M298.748 105.547C299.87 106.057 301.452 107.225 302.337 106.838L307.021 104.8L304.139 107.91C301.312 108.262 299.286 108.641 298.748 105.547Z" fill="#52190E"/>
<path id="Vector_48" d="M285.058 225.461L281.284 226.296L278.143 221.706L285.058 225.461Z" fill="#52190E"/>
<path id="Vector_49" d="M151.257 60.4307L150.526 64.7853L146.716 61.7417L151.257 60.4307Z" fill="#52190E"/>
<path id="Vector_50" d="M320.185 149.282L317.648 144.382C317.718 143.98 320.355 144.413 321.225 145.028C322.103 145.651 321.16 148.184 320.185 149.278V149.282Z" fill="#52190E"/>
<path id="Vector_51" d="M295.755 199.813C294.111 199.48 292.595 196.564 293.674 194.723C295.434 194.859 296.799 197.856 295.755 199.813Z" fill="#52190E"/>
<path id="Vector_52" d="M295.862 112.396L295.194 114.513L299.948 116.013L300.616 113.896L295.862 112.396Z" fill="#52190E"/>
<path id="Vector_53" d="M246.988 110.4C246.505 111.174 245.391 112.067 244.277 112.798L245.503 107.894L247.085 107.202C247.456 107.04 248.392 108.149 248.179 108.49L246.984 110.404L246.988 110.4Z" fill="#52190E"/>
<path id="Vector_54" d="M128.734 93.1907L127.484 89.9847C127.287 89.4587 129.913 89.0875 130.052 89.6676L130.57 91.8642C130.706 92.4443 128.993 93.4692 128.734 93.1946V93.1907Z" fill="#52190E"/>
<path id="Vector_55" d="M264.786 85.255L262.334 85.5644C261.649 85.6494 260.462 83.9672 260.512 83.4721C261.108 83.565 262.183 84.002 262.361 83.6462L263.347 81.6854C263.521 81.3412 264.217 82.3545 264.291 82.7412L264.782 85.2588L264.786 85.255Z" fill="#52190E"/>
<path id="Vector_56" d="M345.527 162.439C343.25 163.742 341.71 165.366 339.324 165.765L345.16 161.062C345.377 160.888 346.618 160.598 346.889 160.532C347.159 160.467 347.322 161.418 347.078 161.557L345.531 162.443L345.527 162.439Z" fill="#52190E"/>
<path id="Vector_57" d="M349.368 198.289C349.023 198.707 347.952 199.933 347.519 199.646L345.102 198.045L349.402 196.034C349.673 195.907 350.532 196.877 350.346 197.106L349.371 198.289H349.368Z" fill="#52190E"/>
<path id="Vector_58" d="M308.362 208.116L303.76 209.605C304.166 208.158 305.686 206.681 306.901 206.244L308.243 206.066C308.521 206.027 308.614 208.035 308.362 208.116Z" fill="#52190E"/>
<path id="Vector_59" d="M355.791 144.305C355.737 145.082 355.424 147.028 355.026 147.001L353.378 146.892C352.86 146.857 352.674 145.218 352.972 144.785L353.869 143.474C354.136 143.083 355.826 143.853 355.795 144.305H355.791Z" fill="#52190E"/>
<path id="Vector_60" d="M303.768 216.906L297.542 217.869C298.505 215.355 301.572 213.758 303.768 216.906Z" fill="#52190E"/>
<path id="Vector_61" d="M331.157 212.613L324.892 216.342C325.998 213.317 327.846 211.562 331.157 212.613Z" fill="#52190E"/>
<path id="Vector_62" d="M229.168 84.9611L226.341 83.9169C226.685 83.3213 228.754 83.592 229.299 84.0716L230.08 84.7599L233.743 85.2086C234.59 85.313 235.63 83.9246 236.581 83.2865C236.581 84.0754 235.239 86.5002 234.296 86.6124C233.217 86.7439 231.221 85.8969 229.995 85.3362L229.168 84.9572V84.9611Z" fill="#52190E"/>
<path id="Vector_63" d="M157.077 75.3508C155.526 76.4839 154.714 77.1762 154.409 76.9016L152.579 75.2464C152.498 74.9989 153.844 73.6376 154.42 73.9431C155.375 74.4497 157.108 75.3701 157.077 75.3547V75.3508Z" fill="#52190E"/>
<path id="Vector_64" d="M302.65 201.754L298.741 203.1C298.091 203.324 297.437 201.851 296.942 200.304L302.65 201.754Z" fill="#52190E"/>
<path id="Vector_65" d="M113.844 81.144C114.846 81.1788 111.849 84.2495 107.541 83.8666L112.216 81.1324C112.506 80.9623 113.512 81.1324 113.844 81.144Z" fill="#52190E"/>
<path id="Vector_66" d="M32.8047 43.8592C32.913 44.8299 32.8125 45.352 32.2594 45.6459C31.397 46.11 29.5484 46.7404 29.5291 46.1139L29.4324 43.0587L32.8086 43.8592H32.8047Z" fill="#52190E"/>
<path id="Vector_67" d="M246.729 62.7511L244.378 66.5333C243.933 63.0643 243.832 61.5135 246.342 60.6163C246.675 60.4964 246.922 62.4417 246.729 62.7511Z" fill="#52190E"/>
<path id="Vector_68" d="M116.741 86.7632L121.579 83.0467L120.485 86.6549C120.252 87.4207 117.665 87.0842 116.741 86.7632Z" fill="#52190E"/>
<path id="Vector_69" d="M123.087 78.1507L121.111 78.6535C120.86 78.7192 120.724 77.822 120.976 77.7292L122.294 77.2496L132.67 73.4867C132.423 76.1242 130.273 76.3717 128.366 76.8436L123.083 78.1507H123.087Z" fill="#52190E"/>
<path id="Vector_70" d="M306.251 95.7315L303.668 94.5481C302.972 94.231 303.215 91.783 303.846 91.4852C305.118 92.1272 305.988 93.8327 306.251 95.7354V95.7315Z" fill="#52190E"/>
<path id="Vector_71" d="M378.713 159.944L374.327 162.35C374.034 162.512 373.078 161.066 373.384 160.923L375.399 159.968L377.116 159.047C377.591 158.792 378.721 159.832 378.717 159.941L378.713 159.944Z" fill="#52190E"/>
<path id="Vector_72" d="M236.535 69.7161C236.461 70.0796 234.895 71.0658 234.342 70.6443L231.929 68.7957C233.066 67.2874 234.907 67.6819 236.535 69.7161Z" fill="#52190E"/>
<path id="Vector_73" d="M101.639 64.0195C100.695 67.7863 97.8336 66.9007 95.9271 66.6532L101.639 64.0195Z" fill="#52190E"/>
<path id="Vector_74" d="M294.958 87.293L288.976 85.6262L289.641 84.5356L295.086 86.3533L294.958 87.293Z" fill="#52190E"/>
<path id="Vector_75" d="M336.246 137.487L332.777 133.751L335.542 134.006C336.149 134.064 336.459 135.538 336.246 137.487Z" fill="#52190E"/>
<path id="Vector_76" d="M313.827 193.563L312.021 194.46C311.642 194.65 310.405 193.725 310.722 193.443L312.327 192.028C312.578 191.807 314.051 191.904 314.399 191.9C314.91 191.9 314.256 193.346 313.827 193.559V193.563Z" fill="#52190E"/>
<path id="Vector_77" d="M270.579 79.4888C269.724 81.1286 267.342 82.1147 265.524 79.5894L270.579 79.4888Z" fill="#52190E"/>
<path id="Vector_78" d="M273.994 132.85L275.432 133.91C275.904 134.258 274.45 135.967 273.947 135.662L272.037 134.501C271.534 134.196 273.518 132.498 273.994 132.846V132.85Z" fill="#52190E"/>
<path id="Vector_79" d="M279.269 212.165C279.679 212.08 280.398 213.456 280.201 213.859C279.938 214.4 278.774 215.564 278.399 215.088L276.55 212.737L279.269 212.165Z" fill="#52190E"/>
<path id="Vector_80" d="M33.8913 48.4652C32.5687 49.5829 31.9151 50.1591 31.4395 49.958L29.0417 48.9486L32.4798 46.7443L33.8875 48.4652H33.8913Z" fill="#52190E"/>
<path id="Vector_81" d="M89.2906 91.1062L84.4139 91.5703L88.9348 89.3621C89.2597 89.2035 89.6387 91.0714 89.2906 91.1062Z" fill="#52190E"/>
<path id="Vector_82" d="M359.508 148.865L359.384 147.677C360.274 146.973 361.094 146.231 361.318 146.583L362.343 148.199C362.621 148.64 361.995 148.455 359.508 148.861V148.865Z" fill="#52190E"/>
<path id="Vector_83" d="M334.954 161.909L337.518 158.266L337.793 160.95C337.866 161.662 335.411 162.133 334.954 161.913V161.909Z" fill="#52190E"/>
<path id="Vector_84" d="M173.927 86.7168L171.413 87.0417C171.123 87.0803 170.74 86.2102 170.945 85.9936L172.751 84.087L173.927 86.7168Z" fill="#52190E"/>
<path id="Vector_85" d="M191.825 90.7427C191.906 90.7427 190.614 90.6963 190.019 90.6731C189.504 90.1046 188.456 89.2151 188.781 88.9367L190.131 87.7726C190.556 87.4052 191.044 88.693 191.825 90.7427Z" fill="#52190E"/>
<path id="Vector_86" d="M27.313 40.0035L28.0749 35.6721C29.3318 36.1478 30.5771 38.9439 27.313 40.0035Z" fill="#52190E"/>
<path id="Vector_87" d="M344.657 151.336L343.145 150.315L344.418 148.134C344.634 147.762 345.899 148.439 346.154 148.783C346.494 149.244 345.883 149.897 344.657 151.336Z" fill="#52190E"/>
<path id="Vector_88" d="M276.281 142.175L274.439 143.568L276.227 145.934L278.069 144.542L276.281 142.175Z" fill="#52190E"/>
<path id="Vector_89" d="M163.891 65.7289C163.965 65.8836 162.499 67.0477 162.023 66.7885L159.417 65.377L161.25 63.9383C161.698 63.5864 162.909 64.8007 163.887 65.7328L163.891 65.7289Z" fill="#52190E"/>
<path id="Vector_90" d="M228.506 102.236L229.93 98.1061L231.07 100.902C231.275 101.405 230.498 101.792 228.503 102.24L228.506 102.236Z" fill="#52190E"/>
<path id="Vector_91" d="M229.527 106.162C228.181 105.388 227.555 104.804 226.584 103.571C227.919 103.056 229.558 104.564 229.527 106.162Z" fill="#52190E"/>
<path id="Vector_92" d="M335.341 132.514C335.685 132.432 334.2 132.784 333.697 132.9C333.241 133.009 332.228 131.891 332.44 131.469L333.558 129.281L335.345 132.51L335.341 132.514Z" fill="#52190E"/>
<path id="Vector_93" d="M166.343 89.161C164.421 89.3195 162.982 88.9251 161.555 88.0394C163.477 87.8925 164.912 88.2831 166.343 89.161Z" fill="#52190E"/>
<path id="Vector_94" d="M25.9563 132.219L25.3563 133.885L28.289 134.941L28.889 133.274L25.9563 132.219Z" fill="#52190E"/>
<path id="Vector_95" d="M306.487 166.921L305.822 168.182C305.667 168.476 304.515 168.112 304.623 167.795L305.118 166.356L305.783 165.1C305.942 164.798 307.094 165.169 306.982 165.486L306.483 166.925L306.487 166.921Z" fill="#52190E"/>
<path id="Vector_96" d="M331.01 161.983L332.781 158.649C333.574 159.627 334.103 160.416 333.817 160.563L331.01 161.986V161.983Z" fill="#52190E"/>
<path id="Vector_97" d="M125.075 55.0773L120.669 56.5465L121.056 57.7058L125.462 56.2366L125.075 55.0773Z" fill="#52190E"/>
<path id="Vector_98" d="M150.584 46.1796L150.862 47.4094C150.963 47.8464 150.108 48.5077 149.663 48.5503C149.219 48.5928 148.047 47.5757 148.441 47.3592L150.584 46.1796Z" fill="#52190E"/>
<path id="Vector_99" d="M262.597 106.777L260.222 108.003C259.87 108.184 259.847 106.626 259.816 106.026C259.793 105.636 260.648 106.019 261.208 106.27C262.639 106.792 263.049 106.943 262.601 106.777H262.597Z" fill="#52190E"/>
<path id="Vector_100" d="M278.36 112.891C276.999 113.687 275.351 113.502 274.523 111.785L278.36 112.891Z" fill="#52190E"/>
<path id="Vector_101" d="M357.435 164.763C357.582 165.332 357.485 164.96 357.299 164.245L356.402 163.038C356.159 162.713 357.087 161.983 357.493 161.944C357.764 161.917 358.734 162.071 358.618 162.311L357.435 164.763Z" fill="#52190E"/>
<path id="Vector_102" d="M369.814 153.556C369.814 153.378 369.81 151.974 369.81 152.148L372.347 151.355C372.688 151.251 372.688 152.693 372.347 152.798L369.818 153.552L369.814 153.556Z" fill="#52190E"/>
<path id="Vector_103" d="M308.564 152.883L306.591 150.11C308.049 149.325 309.909 151.661 308.564 152.883Z" fill="#52190E"/>
<path id="Vector_104" d="M171.711 88.0626L173.559 87.614C173.888 87.5328 174.31 88.8013 174.008 88.9444L172.813 89.509C172.361 89.7217 171.224 88.1787 171.711 88.0626Z" fill="#52190E"/>
<path id="Vector_105" d="M356.673 172.834L357.617 173.627C357.914 173.878 358.027 175.329 357.667 175.178L355.865 174.4C355.505 174.246 355.989 173.673 356.673 172.83V172.834Z" fill="#52190E"/>
<path id="Vector_106" d="M114.626 68.6255C114.606 68.32 116.076 68.6062 116.064 68.9078L116.022 70.4161C116.014 70.7178 114.773 71.1509 114.753 70.8492L114.626 68.6217V68.6255Z" fill="#52190E"/>
<path id="Vector_107" d="M361.863 150.744L363.712 150.361C364.017 150.299 364.446 151.483 364.156 151.595L362.919 152.059C362.482 152.221 361.403 150.841 361.863 150.748V150.744Z" fill="#52190E"/>
<path id="Vector_108" d="M142.335 80.4324L144.183 80.0534C144.485 79.9916 144.918 81.1711 144.624 81.2832L143.383 81.7512C142.946 81.9175 141.882 80.5252 142.331 80.4363L142.335 80.4324Z" fill="#52190E"/>
<path id="Vector_109" d="M172.813 82.923C173.231 83.8434 172.802 82.8959 172.256 81.7009L172.79 80.0882C172.894 79.7672 174.236 80.2313 174.082 80.5291L172.813 82.9191V82.923Z" fill="#52190E"/>
<path id="Vector_110" d="M0.114241 126.016L1.95508 125.634C2.2606 125.568 2.6744 126.763 2.39982 126.867L1.15842 127.331C0.721409 127.494 -0.349837 126.117 0.114241 126.02V126.016Z" fill="#52190E"/>
<path id="Vector_111" d="M135.347 90.5029C134.02 91.4775 132.763 91.4659 131.305 90.3405L135.347 90.5029Z" fill="#52190E"/>
<path id="Vector_112" d="M32.7351 40.0151L31.7412 38.9129C31.4628 38.6035 30.9677 37.5942 31.3467 37.7295L33.06 38.3406C33.4506 38.4798 33.0136 40.3245 32.7351 40.0151Z" fill="#52190E"/>
<path id="Vector_113" d="M248.09 93.62C247.835 94.1769 245.894 93.7592 245.248 92.8581C245.488 92.3012 247.441 92.7266 248.09 93.62Z" fill="#52190E"/>
<path id="Vector_114" d="M341.765 202.102C341.881 201.835 343.196 202.721 343.099 202.964L342.619 204.144C342.472 204.508 340.736 204.465 340.894 204.105L341.765 202.098V202.102Z" fill="#52190E"/>
<path id="Vector_115" d="M268.951 113.707C268.738 114.275 266.727 113.842 266.131 112.949C266.325 112.376 268.34 112.813 268.951 113.707Z" fill="#52190E"/>
<path id="Vector_116" d="M349.016 159.705C349.925 161.375 350.628 162.037 349.847 161.986C349.24 161.948 347.623 161.905 347.84 161.565L349.016 159.705Z" fill="#52190E"/>
<path id="Vector_117" d="M241.647 73.0227C241.091 72.7829 241.512 70.8222 242.409 70.184C242.97 70.4238 242.549 72.3768 241.647 73.0227Z" fill="#52190E"/>
<path id="Vector_118" d="M236.821 110.145L233.495 109.186C234.377 108.389 236.164 108.119 236.821 110.145Z" fill="#52190E"/>
<path id="Vector_119" d="M331.477 147.399L331.052 145.844L332.866 145.156C333.106 145.063 334.173 145.198 333.976 145.361L331.477 147.403V147.399Z" fill="#52190E"/>
<path id="Vector_120" d="M287.065 142.132C286.988 141.872 288.469 141.961 288.554 142.213L289.08 143.748C289.215 144.139 287.665 144.116 287.549 143.737L287.061 142.132H287.065Z" fill="#52190E"/>
</g>
<g id="Group_4">
<path id="Vector_121" d="M160.248 362.286C163.593 358.779 165.094 355.735 163.276 351.121C162.097 348.128 158.663 346.067 155.217 348.441L158.523 350.054C159.127 352.854 156.365 356.087 153.248 355.758C147.556 355.159 148.689 348.48 146.504 344.872C148.464 344.087 150.441 342.594 151.636 341.248C157.278 339.295 163.485 339.713 169.313 340.482L181.445 342.087C184.581 339.991 186.867 337.419 191.589 339.26L187.555 342.841C194.946 344.821 202.611 345.97 210.713 346.38L218.703 345.181C222.431 345.676 225.057 345.873 228.425 344.794L236.852 342.091L231.824 344.972C223.746 349.598 215.698 353.229 206.61 355.507C196.585 358.021 186.967 360.662 176.51 360.917C171.355 361.845 166.757 362.499 160.252 362.286H160.248Z" fill="#52190E"/>
<path id="Vector_122" d="M287.158 291.511C292.375 287.496 288.713 283.289 290.925 280.496C290.704 278.837 287.297 277.054 285.383 277.925L288.794 281.974L283.879 285.907C282.684 286.862 278.975 284.801 278.321 283.285C276.21 278.389 277.625 272.197 280.294 267.572L287.409 255.235C288.167 253.924 288.929 253.069 290.206 251.824C293.241 248.858 296.022 244.898 299.901 243.123C307.929 239.449 311.886 233.044 319.636 234.785L313.827 238.412C310.992 240.183 307.117 241.456 304.812 243.815L301.115 247.605L300.303 257.026C299.994 260.607 299.437 263.248 297.921 266.551L297.561 273.083L294.966 278.412C294.657 279.046 293.423 280.16 292.588 280.728C292.031 285.86 291.451 291.538 287.154 295.726L287.17 291.518L287.158 291.511Z" fill="#52190E"/>
<path id="Vector_123" d="M128.861 354.528C119.668 352.525 111.566 348.198 103.596 343.727C101.218 342.393 100.591 340.838 98.8701 338.68L95.3005 334.21L90.1338 327.732L86.2704 322.356L73.748 305.023C76.3198 306.226 77.5302 308.287 79.1545 310.143L84.1511 315.859C94.4652 327.658 111.899 340.838 128.01 341.805C127.55 346.005 127.801 349.257 128.865 354.532L128.861 354.528Z" fill="#52190E"/>
<path id="Vector_124" d="M209.997 377.28C210.485 381.921 206.757 383.916 203.643 383.997L203.686 381.944C203.698 381.43 202.468 380.289 202.089 380.637L200.194 382.385C199.687 382.853 198.125 382.509 197.866 381.87L196.462 378.405L191.891 382.601L190.483 379.229C189.47 376.8 184.663 384.574 181.948 381.526L184.21 380.416C184.643 380.204 184.481 379.589 184.446 378.56C184.462 378.026 184.748 375.95 185.328 376.042L188.252 376.514C187.749 374.975 189.543 370.415 191.485 370.493C194.753 370.624 195.7 374.747 195.948 376.94C198.31 374.735 201.478 373.347 203.57 373.084C204.069 373.022 205.287 371.912 205.763 371.73C206.362 371.502 207.635 371.958 208.203 372.314L209.7 373.25C209.99 373.432 209.506 374.476 209.166 374.426L207.642 374.213L205.763 373.95C205.349 373.892 204.889 375.23 205.283 375.354L207.878 376.174L206.339 377.98C205.902 378.49 204.169 378.115 203.164 377.875C203.017 377.748 202.008 379.295 202.433 379.469L204.529 380.331L210.001 377.268L209.997 377.28Z" fill="#52190E"/>
<path id="Vector_125" d="M243.921 313.369L238.117 304.973L241.118 303.87C239.11 301.554 239.694 298.932 242.212 297.103C243.964 295.834 247.127 296.407 248.694 297.899C250.724 299.833 250.855 302.343 250.449 305.448L243.918 313.369H243.921Z" fill="#52190E"/>
<path id="Vector_126" d="M189.849 401.172C188.279 401.091 186.701 401.188 186.252 400.491C185.633 399.536 185.022 398.109 184.933 397.301L186.759 396.272L186.774 394.284C188.576 393.441 189.895 392.304 190.719 390.162L195.097 389.323L199.633 393.654L196.408 397.444C194.524 399.656 193.337 401.346 189.849 401.168V401.172Z" fill="#52190E"/>
<path id="Vector_127" d="M242.317 324.108C241.891 324.356 239.586 324.166 239.749 323.752C239.965 323.195 240.518 322.202 240.99 321.803L249.108 314.912C253.18 311.454 254.004 305.785 255.783 300.951L256.626 306.697C257.02 309.389 255.732 310.739 253.806 313.032C250.728 316.706 246.234 321.842 242.32 324.108H242.317Z" fill="#52190E"/>
<path id="Vector_128" d="M224.02 375.002L221.394 377.048C220.721 377.57 218.962 375.149 219.244 374.979L216.344 375.992C215.686 376.22 215.145 373.807 215.439 373.811L223.073 371.104L223.351 365.554L225.575 368.868C226.004 369.507 227.226 369.387 228.533 369.503L226.975 371.197C226.522 371.688 228.096 375.451 226.963 375.327L224.02 375.002Z" fill="#52190E"/>
<path id="Vector_129" d="M221.398 316.861C218.734 320.102 219.012 322.944 221.178 325.798C218.505 326.088 215.435 325.141 214.17 322.615C213.447 321.177 214.077 317.901 215.199 317.077C216.657 316.006 219.739 316.145 221.402 316.857L221.398 316.861Z" fill="#52190E"/>
<path id="Vector_130" d="M297.167 356.636C289.088 357.232 287.351 366.687 283.496 359.343L287.123 360.469L292.472 356.307L289.235 354.412C288.488 353.975 288.442 351.941 289.216 350.255L297.163 356.636H297.167Z" fill="#52190E"/>
<path id="Vector_131" d="M299.383 285.528C299.367 280.493 300.806 279.359 301.131 274.827L301.328 272.077C301.371 271.509 303.327 272.174 303.71 272.34L303.262 270.337C303.146 269.819 303.815 269.215 304.708 268.631C304.874 275.233 303.045 280.96 299.383 285.532V285.528Z" fill="#52190E"/>
<path id="Vector_132" d="M303.196 345.637L303.965 342.397C304.132 341.7 305.837 341.225 306.785 340.854L305.733 338.344C305.3 337.307 308.583 335.729 308.227 332.543C308.115 331.533 306.116 330.559 304.607 330.133L306.955 327.968C308.904 326.169 309.569 325.094 310.203 321.71L315.884 325.025C318.097 323.741 320.417 321.308 321.372 319.015L323.256 319.204C323.596 319.239 322.799 320.473 322.532 320.782L315.03 329.615C313.974 326.374 313.792 325.701 312.048 324.909L311.851 329.611C310.451 331.073 307.717 334.964 308.506 336.893L310.068 340.71C310.459 341.666 308.366 343.518 307.388 343.92L303.2 345.634L303.196 345.637Z" fill="#52190E"/>
<path id="Vector_133" d="M252.337 332.721L252.317 330.733C252.317 330.358 254.321 330.671 254.738 330.373L265.501 322.782C261.15 328.896 254.851 333.127 248.214 336.774C249.05 335.459 251.099 333.715 252.333 332.721H252.337Z" fill="#52190E"/>
<path id="Vector_134" d="M215.586 361.281C215.118 361.582 214.166 362.155 214.07 361.76L213.521 359.448C213.397 358.933 215.284 359.405 215.988 359.653L219.538 356.362L226.321 356.184C223.653 359.494 219.631 360.364 215.586 361.281Z" fill="#52190E"/>
<path id="Vector_135" d="M331.536 241.328L336.973 242.732C338.62 243.157 340.283 242.357 341.753 240.795C341.966 240.876 342.909 241.641 342.797 241.943C342.631 242.396 341.962 243.552 341.552 243.865C338.74 246.039 332.773 246.07 331.536 241.324V241.328Z" fill="#52190E"/>
<path id="Vector_136" d="M292.062 323.536C294.073 325.999 290.128 331.553 286.241 331.437C286.663 328.115 289.181 326.239 292.062 323.536Z" fill="#52190E"/>
<path id="Vector_137" d="M261.471 337.269C260.211 338.897 257.078 337.346 256.227 335.544L258.517 331.216C259.82 332.291 261.386 333.912 262.16 334.971L260.029 336.047C259.828 336.147 259.708 335.927 261.471 337.269Z" fill="#52190E"/>
<path id="Vector_138" d="M202.986 399.037L207.271 396.802C207.023 396.64 205.527 396.052 205.063 395.971L203.291 395.665C202.827 395.584 204.007 393.921 204.475 393.967L210.492 394.563C210.233 398.02 207.093 400.82 202.982 399.041L202.986 399.037Z" fill="#52190E"/>
<path id="Vector_139" d="M336.822 285.331C334.85 287.809 333.125 287.179 330.685 286.819C328.074 286.437 326.229 285.659 326.291 282.152L329.513 284.352L336.822 285.327V285.331Z" fill="#52190E"/>
<path id="Vector_140" d="M355.571 289.793C354.844 290.934 352.976 292.369 351.951 292.485C350.632 292.636 347.987 291.634 347.361 290.343L352.964 288.68C353.293 288.583 354.372 287.929 354.623 287.748C354.999 287.481 355.815 289.418 355.575 289.793H355.571Z" fill="#52190E"/>
<path id="Vector_141" d="M267.702 375.779L266.917 371.738L269.469 373.633L280.85 366.328C277.807 371.436 272.327 372.774 267.702 375.775V375.779Z" fill="#52190E"/>
<path id="Vector_142" d="M305.153 369.17C306.456 372.206 303.169 375.675 299.448 376.313C299.638 372.31 302.136 370.798 305.153 369.17Z" fill="#52190E"/>
<path id="Vector_143" d="M315.459 356.025C314.875 352.405 319.237 354.033 320.224 350.866C320.479 350.054 320.881 348.716 321.299 348.886L322.927 349.559C324.288 350.12 321.987 355 315.463 356.025H315.459Z" fill="#52190E"/>
<path id="Vector_144" d="M233.085 412.503L227.157 412.372C227.315 411.185 228.054 409.425 228.854 409.406L232.954 409.313L236.195 409.471L233.812 410.488C233.344 410.69 233.391 411.084 233.085 412.499V412.503Z" fill="#52190E"/>
<path id="Vector_145" d="M333.879 265.178C332.936 265.019 331.648 264.13 331.826 263.565C332.089 262.718 332.928 261.844 333.701 261.326L333.45 264.107L338.184 263.643C339.359 261.821 340.195 260.723 341.49 259.729C341.919 264.462 337.909 265.862 333.879 265.182V265.178Z" fill="#52190E"/>
<path id="Vector_146" d="M306.112 299.021L303.393 300.467C302.828 300.769 301.308 298.951 300.612 298.081C303.629 296.41 304.855 296.488 308.803 296.859C308.877 295.973 308.842 297.876 308.803 298.719C308.776 299.315 306.645 298.739 306.112 299.021Z" fill="#52190E"/>
<path id="Vector_147" d="M343.868 315.387C343.671 315.851 342.155 316.548 341.49 316.749C341.007 316.896 341.301 315.217 341.378 314.908L340.573 313.222C340.423 312.905 341.838 312.437 342.163 312.297L346.456 309.281L343.868 315.387Z" fill="#52190E"/>
<path id="Vector_148" d="M241.222 393.306C239.78 394.439 236.365 395.897 234.416 396.067L238.186 391.635C238.476 391.295 239.81 390.746 240.213 390.545C240.754 390.274 241.694 392.935 241.222 393.306Z" fill="#52190E"/>
<path id="Vector_149" d="M327.869 308.836L321.805 306.214C321.902 305.216 323.94 304.126 325.143 304.219C327.092 304.365 329.057 305.591 327.865 308.836H327.869Z" fill="#52190E"/>
<path id="Vector_150" d="M203.125 406.969C200.352 407.433 199.061 407.627 197.355 406.2L201.915 403.69C202.51 403.361 204.131 403.551 204.645 403.98C205.26 404.49 203.999 406.826 203.125 406.969Z" fill="#52190E"/>
<path id="Vector_151" d="M222.268 404.339C219.847 406.099 217.751 405.944 216.336 404.026L221.124 401.431C221.476 401.238 222.945 401.849 223.239 402.162C223.63 402.58 222.837 403.926 222.272 404.339H222.268Z" fill="#52190E"/>
<path id="Vector_152" d="M304.979 310.236L303.412 311.845C303.088 312.177 301.212 311.439 301.877 311.508L302.809 306.206C302.67 305.56 304.94 306.083 305.478 306.856C306.015 307.629 305.632 309.563 304.979 310.236Z" fill="#52190E"/>
<path id="Vector_153" d="M121.277 389.272L118.269 388.897C117.816 388.839 118.532 387.149 118.984 387.176L122.225 387.358L118.358 384.171L121.212 384.295C121.854 384.322 122.499 382.826 122.848 382.265C122.987 382.044 124.657 382.311 124.491 382.512L123.594 383.615L122.457 385.007C122.225 385.289 123.304 386.14 123.377 386.5L123.83 388.75C123.93 389.257 121.846 389.346 121.274 389.272H121.277Z" fill="#52190E"/>
<path id="Vector_154" d="M307.841 255.544C307.419 258.422 307.102 259.652 304.565 260.216L305.095 254.612C305.137 254.156 306.441 253.27 306.893 253.131C307.496 252.946 307.96 254.732 307.841 255.544Z" fill="#52190E"/>
<path id="Vector_155" d="M320.204 259.404L317.111 262.649C316.472 263.322 314.028 262.308 312.926 261.272C315.03 259.686 317.002 259.164 320.204 259.404Z" fill="#52190E"/>
<path id="Vector_156" d="M299.162 330.393C299.619 330.864 297.859 332.543 297.194 332.442C296.529 332.342 294.955 331.417 295.152 330.779L296.215 327.341L299.158 330.396L299.162 330.393Z" fill="#52190E"/>
<path id="Vector_157" d="M230.135 330.512C227.064 332.794 225.026 333.502 221.623 333.254L227.01 330.431C227.868 329.983 229.392 329.913 230.135 330.512Z" fill="#52190E"/>
<path id="Vector_158" d="M111.141 372.028C111.822 375.327 109.826 377.67 106.508 377.52L108.736 376.077C109.25 375.745 108.821 374.155 108.651 373.37C108.538 372.863 109.822 372.299 111.141 372.028Z" fill="#52190E"/>
<path id="Vector_159" d="M298.602 326.792L298.957 321.03C301.862 322.055 302.434 325.237 298.602 326.792Z" fill="#52190E"/>
<path id="Vector_160" d="M162.178 384.411C161.544 384.933 159.571 383.827 159.552 383.003C159.533 382.261 159.807 380.644 160.136 379.886C162.004 379.631 163.779 383.096 162.178 384.411Z" fill="#52190E"/>
<path id="Vector_161" d="M127.655 409.638L124.963 410.253C124.189 410.43 122.967 408.744 123.06 408.249L126.753 406.18L127.655 409.638Z" fill="#52190E"/>
<path id="Vector_162" d="M272.257 345.05C269.945 343.592 268.653 342.312 268.305 340.571C269.183 339.864 271.41 340.254 271.557 341.09L272.257 345.05Z" fill="#52190E"/>
<path id="Vector_163" d="M232.32 362.159L228.793 363.056L229.106 359.819C229.175 359.107 231.028 359.278 231.62 359.691C232.211 360.105 232.989 361.989 232.32 362.159Z" fill="#52190E"/>
<path id="Vector_164" d="M233.271 391.601C231.817 393.457 229.493 394.799 226.441 393.55C228.185 392.076 229.102 391.57 233.271 391.601Z" fill="#52190E"/>
<path id="Vector_165" d="M297.186 292.938L293.469 288.919L297.77 287.984L297.186 292.938Z" fill="#52190E"/>
<path id="Vector_166" d="M161.389 355.967C159.885 355.097 159.289 351.992 160.929 351.156C161.517 350.858 162.917 352.637 162.658 353.202L161.389 355.967Z" fill="#52190E"/>
<path id="Vector_167" d="M306.406 314.753L302.608 318.694L300.995 317.638C300.551 317.348 301.866 315.704 302.403 315.592L306.406 314.753Z" fill="#52190E"/>
<path id="Vector_168" d="M63.9946 328.672C60.6919 330.884 59.6361 328.32 59.2069 325.732L63.9946 328.672Z" fill="#52190E"/>
<path id="Vector_169" d="M275.162 314.177C274.999 314.444 272.679 314.204 272.857 313.949L273.715 312.734L278.379 308.906L275.162 314.177Z" fill="#52190E"/>
<path id="Vector_170" d="M261.452 353.511L264.859 347.83C265.548 350.429 265.076 352.548 261.452 353.511Z" fill="#52190E"/>
<path id="Vector_171" d="M347.527 286.123L346.119 288.807C345.864 289.295 343.899 288.103 344.209 287.643L345.543 285.675L346.761 284.302C347.082 283.942 347.809 285.578 347.527 286.12V286.123Z" fill="#52190E"/>
<path id="Vector_172" d="M266.696 398.438C268.077 396.172 270.034 394.826 272.439 394.895C271.229 397.355 269.125 398.353 266.696 398.438Z" fill="#52190E"/>
<path id="Vector_173" d="M276.403 308.028L273.418 311.702C273.329 310.298 273.213 309.037 273.518 308.391C273.874 307.641 275.808 306.612 276.577 306.295L276.403 308.028Z" fill="#52190E"/>
<path id="Vector_174" d="M37.0239 225.782L35.2372 230.391C34.2858 227.545 34.2858 226.752 34.5798 224.49L37.02 225.785L37.0239 225.782Z" fill="#52190E"/>
<path id="Vector_175" d="M117.566 411.522L116.299 413.737L119.578 415.613L120.846 413.398L117.566 411.522Z" fill="#52190E"/>
<path id="Vector_176" d="M342.569 258.723C341.703 258.681 340.044 257.25 340.121 256.538C340.198 255.827 340.891 255.107 342.418 253.731L342.569 258.723Z" fill="#52190E"/>
<path id="Vector_177" d="M239.076 387.698C237.529 389.547 236.183 390.413 234.462 390.866C235.092 388.53 236.694 386.867 239.076 387.698Z" fill="#52190E"/>
<path id="Vector_178" d="M315.819 276.521L317.528 270.894C317.973 271.261 318.916 273.427 318.507 274.227C318.097 275.028 316.492 276.231 315.815 276.521H315.819Z" fill="#52190E"/>
<path id="Vector_179" d="M74.9276 380.06C75.2486 380.142 74.9817 382.501 74.6646 382.381C74.3475 382.261 73.3497 382.002 73.0983 381.758L70.1244 378.865L74.9237 380.057L74.9276 380.06Z" fill="#52190E"/>
<path id="Vector_180" d="M274.299 340.587L279.064 338.835L277.397 341.654C276.991 342.339 275.185 341.31 274.299 340.587Z" fill="#52190E"/>
<path id="Vector_181" d="M292.116 333.904L288.593 337.315L288.802 334.353C288.844 333.761 290.43 333.633 292.12 333.904H292.116Z" fill="#52190E"/>
<path id="Vector_182" d="M303.95 349.393C303.846 349.942 302.643 351.141 301.939 351.156C301.061 351.175 299.336 349.818 299.008 348.925C300.021 348.229 301.634 348.492 303.946 349.393H303.95Z" fill="#52190E"/>
<path id="Vector_183" d="M237.502 326.231L232.351 329.673L231.237 329.302L236.226 325.748L237.502 326.231Z" fill="#52190E"/>
<path id="Vector_184" d="M226.994 403.288L225.142 401.427L231.248 399.227L226.994 403.288Z" fill="#52190E"/>
<path id="Vector_185" d="M230.97 353.291L225.645 355.569C225.939 353.078 228.12 351.369 230.97 353.291Z" fill="#52190E"/>
<path id="Vector_186" d="M288.999 385.305C288.121 386.093 286.126 387.261 284.35 387.923L287.905 383.792C287.905 383.727 289.185 385.138 288.995 385.308L288.999 385.305Z" fill="#52190E"/>
<path id="Vector_187" d="M278.743 354.606C280.708 354.06 283.558 357.332 283.809 357.038L282.645 358.403L278.743 354.606Z" fill="#52190E"/>
<path id="Vector_188" d="M133.216 383.719L128.637 384.349C128.494 383.456 128.954 381.75 129.495 381.998L133.22 383.719H133.216Z" fill="#52190E"/>
<path id="Vector_189" d="M295.399 337.056L295.206 340.42L293.199 338.023C292.982 337.764 292.387 336.735 292.147 336.321C291.984 336.043 292.855 336.499 293.207 336.576L295.399 337.052V337.056Z" fill="#52190E"/>
<path id="Vector_190" d="M316.929 282.979C315.142 283.644 312.164 283.683 311.422 280.864L316.929 282.979Z" fill="#52190E"/>
<path id="Vector_191" d="M305.497 380.354L300.976 383.263C301.069 382.23 301.545 380.227 302.152 380.246L305.497 380.354Z" fill="#52190E"/>
<path id="Vector_192" d="M359.45 242.836C357.303 243.494 354.743 243.227 353.266 240.659L359.45 242.836Z" fill="#52190E"/>
<path id="Vector_193" d="M35.3919 253.897L35.6472 252.277L35.9372 250.467C36.5908 250.308 38.3117 251.82 38.0449 252.613C37.7781 253.406 35.2604 254.717 35.3919 253.901V253.897Z" fill="#52190E"/>
<path id="Vector_194" d="M40.4697 262.517L38.3736 262.68C37.9714 262.711 36.8383 262.158 37.1013 261.856L39.1355 259.524L40.4697 262.521V262.517Z" fill="#52190E"/>
<path id="Vector_195" d="M303.842 268.094L305.342 262.726C306.87 264.497 306.572 267.104 303.842 268.094Z" fill="#52190E"/>
<path id="Vector_196" d="M199.049 385.587L196.686 389.512L196.415 385.544C196.071 385.54 196.81 385.552 199.049 385.587Z" fill="#52190E"/>
<path id="Vector_197" d="M241.114 340.007L246.052 337.404C245.14 339.659 243.805 340.598 241.114 340.007Z" fill="#52190E"/>
<path id="Vector_198" d="M295.21 321.405C295.655 321.119 297.758 320.956 297.704 321.413L297.461 323.458C297.407 323.903 296.049 323.485 295.434 323.215C294.866 322.963 294.699 321.73 295.21 321.401V321.405Z" fill="#52190E"/>
<path id="Vector_199" d="M311.28 286.939L309.594 288.459L311.575 290.657L313.261 289.137L311.28 286.939Z" fill="#52190E"/>
<path id="Vector_200" d="M49.558 358.728C49.5812 360.766 49.616 361.517 49.2486 361.517H47.6282C47.0829 361.517 47.342 360.511 47.7442 358.96L49.5541 358.725L49.558 358.728Z" fill="#52190E"/>
<path id="Vector_201" d="M189.423 324.475C187.61 325.454 185.641 325.883 183.178 325.462L189.423 324.475Z" fill="#52190E"/>
<path id="Vector_202" d="M205.89 319.015L201.988 319.8L202.68 318.241C202.85 317.855 204.053 318.234 205.89 319.015Z" fill="#52190E"/>
<path id="Vector_203" d="M38.2841 181.196L34.9884 183.175L35.8065 184.537L39.1023 182.559L38.2841 181.196Z" fill="#52190E"/>
<path id="Vector_204" d="M199.459 320.832C198.798 321.757 196.756 322.147 195.727 321.556C196.392 320.627 197.641 320.295 199.459 320.832Z" fill="#52190E"/>
<path id="Vector_205" d="M353.873 268.442C352.291 268.515 352.779 267.955 354.113 267.398L356.019 267.042C356.34 266.984 356.793 268.357 356.468 268.365L353.877 268.438L353.873 268.442Z" fill="#52190E"/>
<path id="Vector_206" d="M294.031 292.319L293.275 294.279L295.635 295.189L296.39 293.229L294.031 292.319Z" fill="#52190E"/>
<path id="Vector_207" d="M274.108 327.346L273.358 328.597L276.426 330.437L277.176 329.186L274.108 327.346Z" fill="#52190E"/>
<path id="Vector_208" d="M181.615 337.416C182.052 337.083 183.955 336.689 183.839 337.071L183.371 338.583C183.212 339.094 181.209 337.729 181.615 337.416Z" fill="#52190E"/>
<path id="Vector_209" d="M119.433 406.343C119.127 406.644 117.402 406.788 117.174 406.335L116.122 404.258L119.433 406.347V406.343Z" fill="#52190E"/>
<path id="Vector_210" d="M281.767 384.137C281.179 384.33 281.887 384.098 283.175 383.672C283.647 383.429 284.559 382.976 284.528 383.367C284.49 383.885 284.474 385.552 284.126 385.37L281.767 384.133V384.137Z" fill="#52190E"/>
<path id="Vector_211" d="M185.007 385.351C185.654 385.351 186.179 384.826 186.179 384.179C186.179 383.532 185.654 383.007 185.007 383.007C184.36 383.007 183.835 383.532 183.835 384.179C183.835 384.826 184.36 385.351 185.007 385.351Z" fill="#52190E"/>
<path id="Vector_212" d="M98.6656 348.72L97.2627 350.133L98.9839 351.841L100.387 350.428L98.6656 348.72Z" fill="#52190E"/>
<path id="Vector_213" d="M293.462 307.494C294.143 307.494 294.696 306.942 294.696 306.26C294.696 305.579 294.143 305.027 293.462 305.027C292.781 305.027 292.228 305.579 292.228 306.26C292.228 306.942 292.781 307.494 293.462 307.494Z" fill="#52190E"/>
<path id="Vector_214" d="M269.419 323.984C268.723 323.269 267.91 321.962 268.247 321.668L269.91 320.206L269.419 323.984Z" fill="#52190E"/>
<path id="Vector_215" d="M102.254 373.822C102.239 373.529 103.704 373.799 103.697 374.101L103.65 375.613C103.642 375.915 102.401 376.352 102.386 376.05L102.254 373.822Z" fill="#52190E"/>
<path id="Vector_216" d="M132.643 371.56C132.728 372.334 132.701 373.474 132.257 373.467L129.832 373.409L132.643 371.56Z" fill="#52190E"/>
<path id="Vector_217" d="M89.9714 364.359C89.7587 364.092 89.2095 362.445 89.0045 361.466C89.9907 361.551 90.6829 362.754 89.9714 364.359Z" fill="#52190E"/>
<path id="Vector_218" d="M330.294 335.196C330.279 334.913 331.744 335.169 331.733 335.466L331.69 336.979C331.682 337.28 330.441 337.713 330.422 337.416L330.294 335.2V335.196Z" fill="#52190E"/>
<path id="Vector_219" d="M347.279 260.87C345.964 261.171 344.205 261.578 345.493 261.28C345.342 258.267 347.469 259.226 347.279 260.87Z" fill="#52190E"/>
</g>
</g>
</g>
</svg>
